<svg width="200" height="200" viewBox="0 0 200 200" fill="none" xmlns="http://www.w3.org/2000/svg">
<circle cx="100" cy="100" r="100" fill="#F8F4F1"/>
<g filter="url(#filter0_d_1903_3202)">
<g filter="url(#filter1_d_1903_3202)">
<rect x="40" y="63" width="120.379" height="74.6491" rx="4" fill="white"/>
</g>
<mask id="mask0_1903_3202" style="mask-type:luminance" maskUnits="userSpaceOnUse" x="40" y="63" width="121" height="75">
<rect x="40" y="63" width="120.379" height="74.6491" rx="4" fill="white"/>
</mask>
<g mask="url(#mask0_1903_3202)">
<rect x="40" y="60.8916" width="120.694" height="78.9349" rx="4" fill="white"/>
<path d="M95.0198 81.8964C95.2395 81.8509 95.4045 81.9678 95.4045 82.1345C95.4045 82.2595 95.3372 82.3807 95.1397 82.4262C94.0538 82.6765 93.9491 83.4474 94.1255 84.7604C94.1916 85.2397 94.302 85.3647 94.5003 85.3855C94.8751 85.4273 95.0074 84.9271 94.8972 84.4269C94.5885 83.0931 95.3604 82.7389 95.8012 82.7597C96.1983 82.7806 96.3966 82.989 96.3966 83.1973C96.3966 83.3642 96.3525 83.4683 96.573 83.5517C96.8155 83.6351 96.9037 83.6976 96.9037 83.9476C96.9037 84.3434 96.6393 85.0521 97.1461 85.198C97.3887 85.2606 97.6755 85.1354 97.918 84.8646C98.0503 84.7186 98.4693 84.4687 98.7117 84.1977C98.9763 83.885 98.7999 83.8018 99.2411 83.5517C99.8142 83.2181 100.057 82.4888 100.895 82.1345C101.534 81.8637 102.174 81.6761 102.328 81.3219C102.593 80.7174 102.328 79.9463 102.901 79.7797C103.188 79.6962 103.475 79.7797 103.673 80.3006C103.805 80.655 104.445 81.1968 104.026 81.5928C103.739 81.8637 103.056 82.468 103.012 82.864C102.967 83.3432 103.32 83.6143 103.122 83.9685C102.923 84.3226 102.504 84.5729 102.218 84.9271C101.997 85.198 101.931 85.4898 101.821 85.7398C101.049 87.4696 101.424 88.1363 101.314 88.6575C101.225 89.0951 100.917 89.4493 100.564 89.7829C100.035 90.2829 100.101 90.5954 99.5055 91.054C99.0868 91.3875 98.9545 92.096 99.0205 92.6586C99.0868 93.263 99.5717 93.8048 99.9906 94.4301C100.388 95.0344 100.299 95.5553 99.8806 95.5553C99.5276 95.5553 99.0868 95.4095 98.7999 94.8885C98.5134 94.3675 98.359 93.3255 97.6314 93.2005C96.9699 93.0963 96.9256 93.3672 96.3085 93.2213C95.9998 93.1379 95.4484 92.9296 94.9413 93.0546C94.1694 93.2422 94.1916 93.784 93.5081 93.909C93.023 94.0132 92.604 93.6798 91.6337 93.7632C90.8841 93.8258 89.5391 94.4717 89.2524 95.5761C89.1863 95.8471 89.0318 96.0971 88.6351 96.0138C88.3705 95.9514 88.1057 95.8263 87.8632 95.3261C87.3341 94.2216 86.8049 93.8048 86.386 93.8048C85.9229 93.8048 86.0111 94.1173 85.6142 94.1173C85.3717 94.1173 85.2394 94.0132 85.085 93.784C84.6439 93.0963 84.3574 92.8253 83.9161 92.6169C83.4975 92.4085 82.9681 92.2835 82.1962 92.2627C81.2263 92.2419 80.4546 91.7417 79.308 91.1166C78.1833 90.5121 77.7645 90.8871 77.4335 90.1578C77.2793 89.8244 76.5516 89.5744 76.1768 89.0535C75.339 87.8863 75.0083 85.6982 75.1847 84.281C75.317 83.1557 75.6698 82.3637 75.9783 81.6761C76.199 81.1758 76.2872 80.7591 76.3092 80.259C76.331 79.6754 76.7942 79.738 76.9928 79.613C77.1911 79.4879 77.103 79.1545 77.4999 79.2378C78.1833 79.4045 79.2198 79.9463 83.5194 80.4257C87.6649 80.8841 88.9438 80.7383 89.6934 80.7174C90.7077 80.6966 91.4354 81.1758 91.8323 81.2176C92.3174 81.2801 92.604 81.2384 92.6261 81.4052C92.6483 81.5303 92.604 81.6136 92.3835 81.7595C92.163 81.9053 91.8762 81.9888 91.9425 82.1345C92.0088 82.2805 92.2512 82.0929 92.4275 82.1345C92.7804 82.2179 93.2213 81.7803 93.8168 81.947C94.0152 81.9888 94.1694 82.0929 94.3238 82.0721C94.5664 82.0513 94.7467 81.9532 95.0198 81.8964Z" fill="#C63663"/>
<path fill-rule="evenodd" clip-rule="evenodd" d="M119.595 78.2061C118.689 78.2061 117.956 78.9398 117.956 79.8447C117.956 80.7498 118.689 81.4835 119.595 81.4835C120.5 81.4835 121.233 80.7498 121.233 79.8447C121.233 78.9398 120.5 78.2061 119.595 78.2061ZM115.402 82.3861C115.168 82.213 114.87 82.129 114.569 82.1728C114.269 82.2165 114.016 82.3593 113.843 82.5926L112.045 85.0134C111.835 85.2949 111.514 85.4437 111.188 85.4437C110.967 85.4437 110.744 85.3753 110.553 85.2334C110.08 84.8823 109.982 84.2144 110.333 83.7418L112.248 81.2061C112.509 80.8543 112.803 80.5644 113.183 80.3443C113.544 80.1349 113.939 79.9976 114.356 79.937C114.777 79.8756 115.199 79.895 115.611 79.9947C116.039 80.0985 116.434 80.2841 116.785 80.5464L120.026 82.9344C120.203 83.0569 120.412 83.109 120.613 83.0811C120.75 83.0622 120.944 82.9972 121.094 82.7952L123.162 80.0112C123.521 79.5278 124.204 79.4271 124.687 79.7861C125.17 80.145 125.271 80.828 124.912 81.3112L122.778 84.1947C122.549 84.5032 122.261 84.7743 121.939 84.9701C121.615 85.1672 121.262 85.2945 120.891 85.3488C120.759 85.3679 120.627 85.3775 120.496 85.3775C119.898 85.3775 119.29 85.1883 118.79 84.8148L118.589 84.6657L116.37 87.6485L119.517 89.9839C119.736 90.1469 119.9 90.3686 119.99 90.6243C120.074 90.8607 120.091 91.1158 120.04 91.3621C119.989 91.6084 119.871 91.8354 119.7 92.0187C119.515 92.2171 119.276 92.3549 119.01 92.4171L112.908 93.8417L111.183 96.1821C110.963 96.4809 110.623 96.639 110.278 96.639C110.047 96.639 109.814 96.5678 109.613 96.4199C109.114 96.0522 109.007 95.3493 109.375 94.85L112.309 90.8688V87.4153C112.309 86.5533 112.509 86.2825 113.127 85.4459L113.19 85.3609L115.402 82.3861ZM114.555 89.097V91.151L116.66 90.6596L114.555 89.097Z" fill="#C63663"/>
<path d="M61.574 100.976H57.9478C56.4009 100.976 55.2783 102.095 55.2783 103.638V114.905C55.2783 116.448 56.4009 117.567 57.9478 117.567H61.574C66.7587 117.567 70.3811 114.155 70.3811 109.269C70.3849 104.388 66.7626 100.976 61.574 100.976ZM61.7553 113.162H59.8998V105.38H61.7553C64.1124 105.38 65.7596 106.981 65.7596 109.273C65.7596 111.566 64.1124 113.162 61.7553 113.162Z" fill="#EF6A00"/>
<path d="M85.9468 102.972C85.9468 101.607 84.9747 100.618 83.6361 100.618C82.2975 100.618 81.3253 101.611 81.3253 102.972V110.705C81.3253 112.197 80.1989 113.367 78.7561 113.367C77.3172 113.367 76.1869 112.197 76.1869 110.705V102.972C76.1869 101.607 75.2148 100.618 73.8762 100.618C72.5376 100.618 71.5654 101.611 71.5654 102.972V110.912C71.5654 115.044 74.5204 117.929 78.7561 117.929C82.988 117.929 85.9468 115.044 85.9468 110.912V102.972Z" fill="#EF6A00"/>
<path d="M116.526 113.631L112.595 109.199L116.259 104.918C116.792 104.299 117.073 103.672 117.073 103.098C117.073 101.706 116.001 100.613 114.635 100.613C113.941 100.613 113.297 100.994 112.664 101.775L108.525 107.303V102.971C108.525 101.563 107.595 100.617 106.214 100.617C104.833 100.617 103.903 101.563 103.903 102.971V115.57C103.903 116.978 104.833 117.924 106.214 117.924C107.595 117.924 108.525 116.978 108.525 115.57V111.204L112.969 116.839C113.609 117.613 114.161 117.928 114.867 117.928C116.236 117.928 117.232 116.882 117.232 115.443C117.228 114.793 116.973 114.135 116.526 113.631Z" fill="#EF6A00"/>
<path d="M123.034 102.972C123.034 101.564 122.104 100.618 120.723 100.618C119.342 100.618 118.412 101.564 118.412 102.972V115.571C118.412 116.979 119.342 117.925 120.723 117.925C122.104 117.925 123.034 116.979 123.034 115.571V102.972Z" fill="#EF6A00"/>
<path d="M144.892 103.106C145.043 101.832 144.09 101.021 143.114 100.909C142.304 100.813 141.682 101.059 141.266 101.632C140.953 102.063 140.761 102.709 140.641 103.725C140.517 104.779 140.529 105.487 140.679 105.952C140.888 106.575 141.37 106.96 142.034 107.037C143.291 107.183 143.885 106.171 144.607 104.129C144.757 103.709 144.869 103.306 144.892 103.106Z" fill="#C63663"/>
<path d="M92.2192 109.139V115.575C92.2192 116.983 91.2895 117.929 89.9084 117.929C88.5274 117.929 87.5977 116.983 87.5977 115.575V102.972C87.5977 101.564 88.5274 100.618 89.9084 100.618C90.5758 100.618 91.1814 100.864 91.5402 101.226C91.8951 101.588 97.697 109.408 97.697 109.408V102.972C97.697 101.564 98.6267 100.618 100.008 100.618C101.389 100.618 102.319 101.564 102.319 102.972V115.571C102.319 116.979 101.389 117.925 100.008 117.925C99.3404 117.925 98.7347 117.683 98.376 117.317C98.0134 116.956 92.2192 109.139 92.2192 109.139Z" fill="#EF6A00"/>
<path d="M129.265 109.139V115.575C129.265 116.983 128.335 117.929 126.954 117.929C125.573 117.929 124.644 116.983 124.644 115.575V102.972C124.644 101.564 125.573 100.618 126.954 100.618C127.622 100.618 128.227 100.864 128.586 101.226C128.941 101.588 134.743 109.408 134.743 109.408V102.972C134.743 101.564 135.673 100.618 137.054 100.618C138.435 100.618 139.364 101.564 139.364 102.972V115.571C139.364 116.979 138.435 117.925 137.054 117.925C136.386 117.925 135.781 117.683 135.422 117.317C135.063 116.952 129.265 109.139 129.265 109.139Z" fill="#EF6A00"/>
<path d="M141.81 116.21H141.424C141.347 116.21 141.297 116.26 141.297 116.337V117.256C141.297 117.333 141.347 117.383 141.42 117.383C141.494 117.383 141.544 117.329 141.544 117.256V116.956H141.698L141.976 117.329C141.999 117.364 142.038 117.383 142.076 117.383C142.153 117.383 142.2 117.337 142.2 117.26C142.2 117.229 142.188 117.206 142.153 117.16L141.98 116.922L142.034 116.883C142.126 116.818 142.176 116.71 142.176 116.583C142.184 116.364 142.03 116.21 141.81 116.21ZM141.721 116.779H141.54V116.387H141.721C141.845 116.387 141.933 116.468 141.933 116.583C141.933 116.699 141.849 116.779 141.721 116.779Z" fill="#EF6A00"/>
<path d="M141.722 115.667C141.077 115.667 140.553 116.175 140.553 116.798C140.553 117.421 141.077 117.929 141.722 117.929C142.366 117.929 142.89 117.421 142.89 116.798C142.89 116.175 142.366 115.667 141.722 115.667ZM141.722 117.725C141.209 117.725 140.788 117.31 140.788 116.798C140.788 116.286 141.205 115.867 141.722 115.867C142.235 115.867 142.655 116.282 142.655 116.798C142.655 117.31 142.239 117.725 141.722 117.725Z" fill="#EF6A00"/>
</g>
</g>
<defs>
<filter id="filter0_d_1903_3202" x="38.2798" y="63" width="123.819" height="78.0899" filterUnits="userSpaceOnUse" color-interpolation-filters="sRGB">
<feFlood flood-opacity="0" result="BackgroundImageFix"/>
<feColorMatrix in="SourceAlpha" type="matrix" values="0 0 0 0 0 0 0 0 0 0 0 0 0 0 0 0 0 0 127 0" result="hardAlpha"/>
<feOffset dy="1.72025"/>
<feGaussianBlur stdDeviation="0.860123"/>
<feColorMatrix type="matrix" values="0 0 0 0 0 0 0 0 0 0 0 0 0 0 0 0 0 0 0.160784 0"/>
<feBlend mode="normal" in2="BackgroundImageFix" result="effect1_dropShadow_1903_3202"/>
<feBlend mode="normal" in="SourceGraphic" in2="effect1_dropShadow_1903_3202" result="shape"/>
</filter>
<filter id="filter1_d_1903_3202" x="35.6994" y="59.5595" width="128.98" height="83.2506" filterUnits="userSpaceOnUse" color-interpolation-filters="sRGB">
<feFlood flood-opacity="0" result="BackgroundImageFix"/>
<feColorMatrix in="SourceAlpha" type="matrix" values="0 0 0 0 0 0 0 0 0 0 0 0 0 0 0 0 0 0 127 0" result="hardAlpha"/>
<feOffset dy="0.860123"/>
<feGaussianBlur stdDeviation="2.15031"/>
<feColorMatrix type="matrix" values="0 0 0 0 0 0 0 0 0 0 0 0 0 0 0 0 0 0 0.3 0"/>
<feBlend mode="normal" in2="BackgroundImageFix" result="effect1_dropShadow_1903_3202"/>
<feBlend mode="normal" in="SourceGraphic" in2="effect1_dropShadow_1903_3202" result="shape"/>
</filter>
</defs>
</svg>
